<?xml version="1.0" standalone="no"?>
<!DOCTYPE svg PUBLIC "-//W3C//DTD SVG 1.1//EN" "http://www.w3.org/Graphics/SVG/1.1/DTD/svg11.dtd" >
<!--
2013-9-30: Created.
-->
<svg>
<metadata>
Created by iconfont
</metadata>
<defs>

<font id="iconfont" horiz-adv-x="1024" >
  <font-face
    font-family="iconfont"
    font-weight="500"
    font-stretch="normal"
    units-per-em="1024"
    ascent="896"
    descent="-128"
  />
    <missing-glyph />
    
    <glyph glyph-name="x" unicode="x" horiz-adv-x="1001"
d="M281 543q-27 -1 -53 -1h-83q-18 0 -36.5 -6t-32.5 -18.5t-23 -32t-9 -45.5v-76h912v41q0 16 -0.5 30t-0.5 18q0 13 -5 29t-17 29.5t-31.5 22.5t-49.5 9h-133v-97h-438v97zM955 310v-52q0 -23 0.5 -52t0.5 -58t-10.5 -47.5t-26 -30t-33 -16t-31.5 -4.5q-14 -1 -29.5 -0.5
t-29.5 0.5h-32l-45 128h-439l-44 -128h-29h-34q-20 0 -45 1q-25 0 -41 9.5t-25.5 23t-13.5 29.5t-4 30v167h911zM163 247q-12 0 -21 -8.5t-9 -21.5t9 -21.5t21 -8.5q13 0 22 8.5t9 21.5t-9 21.5t-22 8.5zM316 123q-8 -26 -14 -48q-5 -19 -10.5 -37t-7.5 -25t-3 -15t1 -14.5
t9.5 -10.5t21.5 -4h37h67h81h80h64h36q23 0 34 12t2 38q-5 13 -9.5 30.5t-9.5 34.5q-5 19 -11 39h-368zM336 498v228q0 11 2.5 23t10 21.5t20.5 15.5t34 6h188q31 0 51.5 -14.5t20.5 -52.5v-227h-327z" />
    

    
    <glyph glyph-name="more" unicode="&#58971;" d="M418.853553 343.024773L115.924219 343.024773c-27.884071 0-50.487881-22.604834-50.487881-50.487881l0-302.928311c0-27.884071 22.604834-50.487881 50.487881-50.487881L418.853553-60.879299999999944c27.884071 0 50.487881 22.604834 50.487881 50.487881L469.341435 292.53689199999997C469.341435 320.42096300000003 446.736601 343.024773 418.853553 343.024773zM427.2682 14.852522000000022c0-18.58938-15.07023-33.658587-33.658587-33.658587L141.16816-18.80606499999999c-18.58938 0-33.658587 15.07023-33.658587 33.658587L107.509573 267.292951c0 18.58938 15.07023 33.658587 33.658587 33.658587l252.440429 0c18.58938 0 33.658587-15.07023 33.658587-33.658587L427.267177 14.852522000000022zM906.905118 343.024773L603.976808 343.024773c-27.884071 0-50.487881-22.604834-50.487881-50.487881l0-302.928311c0-27.884071 22.604834-50.487881 50.487881-50.487881l302.928311 0c27.884071 0 50.487881 22.604834 50.487881 50.487881L957.393 292.53689199999997C957.393 320.42096300000003 934.789189 343.024773 906.905118 343.024773zM915.319765 14.852522000000022c0-18.58938-15.07023-33.658587-33.658587-33.658587L629.220748-18.80606499999999c-18.58938 0-33.658587 15.07023-33.658587 33.658587L595.562161 267.292951c0 18.58938 15.07023 33.658587 33.658587 33.658587l252.440429 0c18.588357 0 33.658587-15.07023 33.658587-33.658587L915.319765 14.852522000000022zM728.099756 438.538127c15.044648-15.044648 39.437198-15.044648 54.481845 0l163.445536 163.445536c15.044648 15.044648 15.044648 39.437198 0 54.481845L782.581602 819.911044c-15.044648 15.044648-39.437198 15.044648-54.481845 0L564.653197 656.465508c-15.044648-15.044648-15.044648-39.437198 0-54.481845L728.099756 438.538127zM611.004875 646.199701l127.360689 127.360689c9.378601 9.378601 24.583908 9.378601 33.962509 0l127.360689-127.360689c9.378601-9.378601 9.378601-24.583908 0-33.962509l-127.360689-127.360689c-9.378601-9.378601-24.583908-9.378601-33.962509 0l-127.360689 127.360689C601.627297 621.614769 601.627297 636.821099 611.004875 646.199701zM418.853553 831.077362L115.924219 831.077362c-27.884071 0-50.487881-22.604834-50.487881-50.487881l0-302.928311c0-27.884071 22.604834-50.487881 50.487881-50.487881L418.853553 427.173289c27.884071 0 50.487881 22.604834 50.487881 50.487881L469.341435 780.5884570000001C469.341435 808.472528 446.736601 831.077362 418.853553 831.077362zM427.2682 502.904087c0-18.58938-15.07023-33.658587-33.658587-33.658587L141.16816 469.2455c-18.58938 0-33.658587 15.07023-33.658587 33.658587L107.509573 755.344516c0 18.58938 15.07023 33.658587 33.658587 33.658587l252.440429 0c18.58938 0 33.658587-15.07023 33.658587-33.658587L427.267177 502.904087z"  horiz-adv-x="1024" />

    
    <glyph glyph-name="refresh" unicode="&#58924;" d="M320.067666 609.562269c53.150524 53.15564 126.532835 86.077447 207.455889 86.077447 89.598644 0 172.483376-40.805358 227.39501-108.063181l-101.596909-101.603049 251.597225 0L904.918881 737.575828l-90.333378-90.361007C743.985562 729.792561 639.765919 779.506822 527.524578 779.506822c-104.055914 0-198.409862-42.322921-266.757506-110.670565-49.444109-49.455365-84.98865-112.251573-100.999298-182.862771l86.263689 0C260.052804 533.647275 285.750069 575.255928 320.067666 609.562269L320.067666 609.562269zM734.974327 194.65560700000003c-53.151547-53.15564-126.533858-86.083587-207.450772-86.083587-89.599667 0-172.488493 40.810474-227.402173 108.069321l101.603049 101.596909L150.122089 318.23825 150.122089 66.64102500000001l90.333378 90.333378c70.601988-82.555228 174.820608-132.270513 287.067065-132.270513 104.055914 0 198.402699 42.306548 266.750343 110.650099 49.360198 49.397037 84.866876 112.477724 100.920504 182.883237L808.689213 318.23722699999996C794.560424 271.00346 768.983909 228.66109600000004 734.974327 194.65560700000003L734.974327 194.65560700000003z"  horiz-adv-x="1024" />

    
    <glyph glyph-name="history" unicode="&#59272;" d="M561.438 657.832c44.508 0 87.652-8.703 128.234-25.868 39.229-16.592 74.473-40.358 104.753-70.639 30.281-30.281 54.047-65.524 70.639-104.754 17.165-40.582 25.868-83.727 25.868-128.236 0-44.508-8.703-87.652-25.868-128.234-16.592-39.229-40.358-74.472-70.639-104.753-30.28-30.281-65.523-54.046-104.753-70.639-40.581-17.165-83.726-25.868-128.234-25.868-44.509 0-87.653 8.703-128.236 25.868-39.228 16.593-74.473 40.358-104.754 70.639-30.28 30.281-54.046 65.523-70.639 104.752-17.165 40.582-25.868 83.727-25.868 128.235 0 44.509 8.703 87.653 25.868 128.236 16.592 39.229 40.358 74.473 70.639 104.754 30.281 30.28 65.524 54.046 104.754 70.639 40.582 17.165 83.727 25.868 128.236 25.868M561.438 719.23c-215.885 0-390.895-175.009-390.895-390.895 0-215.883 175.01-390.893 390.895-390.893 215.883 0 390.893 175.01 390.893 390.893 0.001 215.885-175.01 390.895-390.893 390.895v0zM541.665 347.28700000000003h225.72c16.621 0 30.096-12.988 30.096-29.008v-29.008c0-16.019-13.476-29.007-30.096-29.007l-225.72 0c-16.621 0-30.096 12.987-30.096 29.007l0 29.008c0 16.02 13.476 29.008 30.096 29.008zM536.701 593.844h29.008c16.02 0 29.008-11.955 29.008-26.702v-280.37c0-14.747-12.987-26.702-29.008-26.702h-29.008c-16.02 0-29.008 11.955-29.008 26.702l0 280.371c0.001 14.746 12.988 26.701 29.008 26.701zM510 833.524c-0.085 0-0.169-0.006-0.253-0.006v0.037c-214.197 0-393.431-149.679-438.825-350.147-0.004-0.021 0-0.043-0.002-0.063-5.483-22.321 7.823-45.05 30.127-51.084 22.437-6.07 45.531 7.037 51.89 29.316 0.064-0.011 0.108-0.019 0.108-0.019 35.463 163.054 179.886 285.421 353.177 287.061 1.245-0.109 2.503-0.176 3.777-0.176 23.495 0 42.541 19.047 42.541 42.541s-19.045 42.542-42.54 42.542z"  horiz-adv-x="1024" />

    
    <glyph glyph-name="uncollect" unicode="&#59052;" d="M707.838805 800.288125c-77.045747 0-148.689461-38.651298-195.835224-102.383832C464.876238 761.655246 393.247874 800.288125 316.158125 800.288125c-138.89028 0-251.884774-123.538641-251.884774-275.40649 0-90.601484 40.469714-154.152892 73.006757-205.222011 94.550423-148.323117 332.280826-332.910159 342.351182-340.694449 9.700943-7.499811 21.042245-11.253298 32.358989-11.253298 11.339256 0 22.664186 3.753487 32.349779 11.253298 10.086729 7.783267 247.832482 192.370309 342.355275 340.694449 32.546254 51.069119 73.031317 114.620527 73.031317 205.222011C959.725626 676.7494839999999 846.719876 800.288125 707.838805 800.288125L707.838805 800.288125 707.838805 800.288125 707.838805 800.288125zM840.700789 354.712977c-89.995687-141.232628-328.711534-325.69892-328.711534-325.69892S273.297968 213.48034800000005 183.270559 354.712977c-33.206286 52.132334-62.940494 101.694123-62.940494 170.168658 0 118.236891 87.666642 214.123752 195.828061 214.123752 79.93147 0 148.553361-52.441373 178.99058-127.518279l0 0.37146 0.082888 0c2.267647-7.819083 8.881274-13.535271 16.757662-13.535271 7.895831 0 14.507412 5.715165 16.756639 13.535271l0.23536 0c30.512944 74.859965 99.032504 127.150912 178.856527 127.150912 108.136859 0 195.823967-95.890954 195.823967-214.127845C903.662773 456.4071 873.929588 406.854521 840.700789 354.712977L840.700789 354.712977 840.700789 354.712977 840.700789 354.712977zM840.700789 354.712977"  horiz-adv-x="1024" />

    
    <glyph glyph-name="collected" unicode="&#59053;" d="M707.838805 800.288125c-77.045747 0-148.689461-38.651298-195.835224-102.383832C464.876238 761.655246 393.247874 800.288125 316.158125 800.288125c-138.89028 0-251.884774-123.538641-251.884774-275.40649 0-90.601484 40.469714-154.152892 73.006757-205.222011 94.550423-148.323117 332.280826-332.910159 342.351182-340.694449 9.700943-7.499811 21.042245-11.253298 32.358989-11.253298 11.339256 0 22.664186 3.753487 32.349779 11.253298 10.086729 7.783267 247.832482 192.370309 342.355275 340.694449 32.546254 51.069119 73.031317 114.620527 73.031317 205.222011C959.725626 676.7494839999999 846.719876 800.288125 707.838805 800.288125L707.838805 800.288125 707.838805 800.288125 707.838805 800.288125z"  horiz-adv-x="1024" />

    
    <glyph glyph-name="clock" unicode="&#58909;" d="M955.808922 659.605012L751.878322 830.693622l-57.029878-67.902506 203.930599-171.08861L955.808922 659.605012zM329.150532 763.013173L272.121678 830.915679 68.191078 659.8270689999999l57.029878-67.902506C125.220956 591.924563 329.150532 763.013173 329.150532 763.013173zM534.190395 558.417425l-66.571185 0 0-266.284739 210.587206-126.70782 33.507138 54.810327L534.190395 325.417767 534.190395 558.417425zM511.777943 735.940584c-220.794685 0-399.206074-178.854481-399.206074-399.428132s178.411389-399.428132 399.206074-399.428132 399.650189 178.854481 399.650189 399.428132S732.572628 735.940584 511.777943 735.940584zM512 25.846923999999944c-171.531702 0-310.666552 139.133827-310.666552 310.666552s139.133827 310.666552 310.666552 310.666552 310.666552-139.133827 310.666552-310.666552S683.753759 25.846923999999944 512 25.846923999999944z"  horiz-adv-x="1024" />

    
    <glyph glyph-name="back" unicode="&#59049;" d="M533.353412 213.714824c0 0.030118 0.060235 0.060235 0.060235 0.090353C533.172706 213.805176 533.142588 213.775059 533.353412 213.714824zM40.176941 340.992l314.398118-314.398118c27.045647-27.045647 70.927059-27.045647 97.942588 0 27.045647 26.985412 27.045647 70.866824 0 97.912471l-196.186353 196.216471 665.630118 0c38.249412 0 69.240471 31.021176 69.240471 69.240471 0 38.279529-31.021176 69.270588-69.240471 69.270588L256.361412 459.233882l196.186353 196.186353c27.045647 27.015529 27.045647 70.927059 0 97.942588C439.024941 766.885647 421.285647 773.662118 403.546353 773.662118c-17.709176 0-35.448471-6.776471-48.941176-20.299294L40.176941 438.934588C13.101176 411.888941 13.101176 368.067765 40.176941 340.992z"  horiz-adv-x="1025" />

    
    <glyph glyph-name="link" unicode="&#59238;" d="M868.571429 201.142857q0 22.857143-16 38.857143l-118.857143 118.857143q-16 16-38.857143 16-24 0-41.142857-18.285714 1.714286-1.714286 10.857143-10.571429t12.285714-12.285714 8.571429-10.857143 7.428571-14.571429 2-15.714286q0-22.857143-16-38.857143t-38.857143-16q-8.571429 0-15.714286 2t-14.571429 7.428571-10.857143 8.571429-12.285714 12.285714-10.571429 10.857143q-18.857143-17.714286-18.857143-41.714286 0-22.857143 16-38.857143l117.714286-118.285714q15.428571-15.428571 38.857143-15.428571 22.857143 0 38.857143 14.857143l84 83.428571q16 16 16 38.285714zm-401.714286 402.857143q0 22.857143-16 38.857143l-117.714286 118.285714q-16 16-38.857143 16-22.285714 0-38.857143-15.428571l-84-83.428571q-16-16-16-38.285714 0-22.857143 16-38.857143l118.857143-118.857143q15.428571-15.428571 38.857143-15.428571 24 0 41.142857 17.714286-1.714286 1.714286-10.857143 10.571429t-12.285714 12.285714-8.571429 10.857143-7.428571 14.571429-2 15.714286q0 22.857143 16 38.857143t38.857143 16q8.571429 0 15.714286-2t14.571429-7.428571 10.857143-8.571429 12.285714-12.285714 10.571429-10.857143q18.857143 17.714286 18.857143 41.714286zm511.428571-402.857143q0-68.571429-48.571429-116l-84-83.428571q-47.428571-47.428571-116-47.428571-69.142857 0-116.571429 48.571429l-117.714286 118.285714q-47.428571 47.428571-47.428571 116 0 70.285714 50.285714 119.428571l-50.285714 50.285714q-49.142857-50.285714-118.857143-50.285714-68.571429 0-116.571429 48l-118.857143 118.857143q-48 48-48 116.571429t48.571429 116l84 83.428571q47.428571 47.428571 116 47.428571 69.142857 0 116.571429-48.571429l117.714286-118.285714q47.428571-47.428571 47.428571-116 0-70.285714-50.285714-119.428571l50.285714-50.285714q49.142857 50.285714 118.857143 50.285714 68.571429 0 116.571429-48l118.857143-118.857143q48-48 48-116.571429z"  horiz-adv-x="1024" />

    
    <glyph glyph-name="min" unicode="&#58921;" d="M65.23884 439.847959L958.760137 439.847959l0-111.695918L65.23884 328.15204100000005 65.23884 439.847959z"  horiz-adv-x="1024" />

    
    <glyph glyph-name="close" unicode="&#58922;" d="M895.423623 671.567461L607.855138 384l286.901289-297.699216 0.666172-85.723384-95.856162 0L512 288.14383799999996 224.432539 0.5763769999999795l-95.856162 0 0 95.856162 287.567461 287.567461L128.576377 671.567461l0 95.856162 95.856162 0 287.567461-287.567461 287.567461 287.567461 95.856162 0L895.423623 671.567461z"  horiz-adv-x="1024" />

    
    <glyph glyph-name="max" unicode="&#58923;" d="M128.576377 0.5794469999999592L128.576377 767.421576l766.846222 0 0-766.842129L128.576377 0.5794469999999592zM799.567461 671.565415L224.432539 671.565415l0-575.134923 575.134923 0L799.567461 671.565415z"  horiz-adv-x="1024" />

    
    <glyph glyph-name="teacher" unicode="&#59037;" d="M956.671995-110.52798800000005L947.519995-127.99998800000003l-23.552 0L92.672005-127.99998800000003 65.856005-127.99998800000003l0.512 26.624c1.024 50.239999 6.272 118.335999 23.872 185.087998 18.24 68.735999 49.599999 136.191998 103.103999 182.463998L201.024004 272.64000699999997l9.92-0.064 116.927999 1.152L327.872002 219.52000799999996l-107.007999 0.896c-40.064-38.208-64.703999-93.183999-79.679999-149.823998-13.568-51.007999-19.2-103.167999-21.376-146.367998l784.447991 0.128c1.344 49.343999-13.056 107.647999-30.784 162.303998-17.856 55.167999-43.327999 102.143999-73.983999 134.591998l-122.239999 0L677.247998 273.72800700000005l139.711998 0 10.752-3.52c40.896-38.208 74.175999-100.479999 95.871999-167.551998C946.303995 32.448009999999954 963.263995-50.04798900000003 956.671995-110.52798800000005L956.671995-110.52798800000005zM520-40.639989000000014l-69.887999 52.351999L495.36 193.28000799999995l-17.088 28.032 1.344 28.672c32.64 1.792 42.24 1.792 74.879999 0l1.344-28.672L538.688 193.28000799999995l51.199999-181.503998L520-40.639989000000014 520-40.639989000000014zM722.239998 485.760005c-17.92-61.823999-42.368-108.095999-75.135999-142.399998C611.839999 306.36800700000003 567.551999 284.22400700000003 512.064 272.576007l-4.48-0.896-4.48 0.704C452.992001 280.768007 408.768001 302.01600699999995 371.968002 339.39200700000004 338.176002 373.63200600000005 311.232002 421.248006 292.416003 484.672005 276.672003 493.184005 264.832003 507.392005 256.832003 526.4000040000001 248.064003 547.328004 243.968003 574.6560039999999 244.480003 607.0400030000001l0.192 12.48 10.496 7.04c3.52 2.432 7.104 4.544 10.624 6.464C249.856003 730.304002 254.016003 813.120001 313.088002 868.288 360.064002 902.4 442.560001 879.104 518.144 890.368c215.615997 32.256 214.143997-76.671999 235.647997-261.311997 1.28-0.768 2.496-1.536 3.776-2.432l10.496-7.04 0.192-12.48c0.512-31.744-3.328-58.559999-11.776-79.359999C748.799997 508.800005 737.407997 494.528005 722.239998 485.760005L722.239998 485.760005zM696.383998 582.912004L693.119998 593.9200040000001l-7.04-0.448-4.032 21.056c-3.136 16.448-7.872 101.567999-14.144 115.519999C649.279998 722.240002 628.351999 736.640002 609.407999 747.456002l-9.6-29.76L584.447999 719.6800020000001l2.048 18.112L570.175999 711.936002 555.711999 714.816002l14.272 38.4C493.696 700.544002 362.240002 703.232002 344.896002 726.784002 342.208002 723.456002 341.696002 718.720002 340.224002 714.5600019999999 336.640002 700.352002 332.608002 611.968003 329.088002 597.888003L328.128002 592.7040039999999 327.744002 592.768004C326.976002 589.888004 326.272002 587.392004 325.504002 585.216004 318.976002 589.504004 305.728002 586.1120040000001 293.824003 584.3200039999999 294.976003 568.640004 297.600003 555.392004 302.016002 545.088004c4.352-10.496 10.368-17.28 17.92-19.584l12.928-3.968 3.52-12.928C353.024002 447.808005 376.960002 403.584006 406.976001 373.120006c27.968-28.352 61.567999-44.991999 99.711999-52.095999 43.391999 9.792 77.823999 27.328 105.023999 55.743999 28.8 30.144 50.239999 73.087999 66.303999 132.415998l3.328 12.352 12.224 4.288c7.424 2.56 13.312 9.472 17.6 19.968 4.16 10.24 6.784 23.168 7.872 38.464C711.871998 584.1280039999999 704.639998 583.936004 696.383998 582.912004L696.383998 582.912004z"  horiz-adv-x="1024" />

    
    <glyph glyph-name="record" unicode="&#58934;" d="M510.162654 550.703743c0 14.818497-12.612249 26.831089-28.172643 26.831089L218.694349 577.5348309999999c-15.560394 0-28.173666-12.011568-28.173666-26.831089 0-14.81952 12.613272-26.832112 28.173666-26.832112l263.295662 0C497.550405 523.871631 510.162654 535.887292 510.162654 550.703743zM328.125691 391.201006L218.694349 391.201006c-15.560394 0-28.173666-12.012591-28.173666-26.832112 0-14.818497 12.613272-26.832112 28.173666-26.832112l109.431342 0c15.560394 0 28.173666 12.012591 28.173666 26.832112C356.30038 379.18841399999997 343.686085 391.201006 328.125691 391.201006zM190.520683 178.03711499999997c0-14.818497 12.613272-26.831089 28.173666-26.831089l547.536354 0c15.558347 0 28.17162 12.011568 28.17162 26.831089s-12.613272 26.833135-28.17162 26.833135L218.694349 204.87025000000006C203.139072 204.87025000000006 190.520683 192.85663499999998 190.520683 178.03711499999997zM952.339402 823.949011c-11.002588 11.001565-26.795273 8.954953-37.796838-2.046612L362.143459 270.525576c-11.001565-11.002588-13.048177-27.822672-2.046612-38.824237 5.500271-5.495154 12.709463-8.248871 19.918655-8.248871 7.208169 0 12.370749 4.799306 17.878183 10.295484L950.292789 786.155243C961.294354 797.156808 963.340967 812.947446 952.339402 823.949011zM867.597369 23.032831999999985c0-16.375969-17.419741-33.795711-33.794687-33.795711L151.128511-10.762878999999998c-16.375969 0-33.796734 17.419741-33.796734 33.795711L117.331777 705.703933c0 16.380062 17.419741 33.799804 33.796734 33.799804l552.067554 0 0 52.250014L151.128511 791.753751c-47.52541 0-86.047772-38.527478-86.047772-86.049818l0-682.671101c0-47.52541 38.527478-86.047772 86.047772-86.047772l682.674171 0c47.51927 0 86.045725 38.522362 86.045725 86.047772L919.848407 574.81079l-52.251038 0L867.597369 23.032831999999985z"  horiz-adv-x="1024" />

    
    <glyph glyph-name="right" unicode="&#58900;" d="M384.30607 639.795611l0-512.41186 320.259338 256.206443L384.30607 639.795611z"  horiz-adv-x="1024" />

    
    <glyph glyph-name="exam" unicode="&#58951;" d="M662.04483 424.396035c-1.741667 0-3.441379-0.176009-5.094018-0.502443-1.144056 0.320295-2.354628 0.502443-3.569292 0.502443L400.467299 424.396035c-0.74906 0-1.471514-0.076748-2.171456-0.192382-1.031493 0.121773-2.086521 0.192382-3.140527 0.192382-14.836917 0-26.853601-12.33698-26.853601-27.554566 0-15.22168 12.016685-27.558659 26.853601-27.558659 1.054005 0 2.103918 0.071631 3.140527 0.197498 0.699941-0.12075 1.422396-0.197498 2.171456-0.197498l252.91422 0c1.219781 0 2.425236 0.186242 3.569292 0.50142 1.651616-0.325411 3.351328-0.50142 5.094018-0.50142 14.82566 0 26.839275 12.33698 26.839275 27.558659C688.883081 412.059056 676.87049 424.396035 662.04483 424.396035zM764.316098 307.69410300000004c-1.747807 0-3.462868-0.177032-5.121648-0.496304-1.121544 0.320295-2.325975 0.496304-3.569292 0.496304L400.462183 307.69410300000004c-0.751107 0-1.466398-0.076748-2.165316-0.188288-1.037632 0.12075-2.091638 0.188288-3.146667 0.188288-14.836917 0-26.847461-12.332886-26.847461-27.557636 0-15.213493 12.016685-27.556613 26.847461-27.556613 1.060145 0 2.109034 0.076748 3.146667 0.198521 0.699941-0.121773 1.414209-0.198521 2.165316-0.198521l355.162976 0c1.243317 0 2.448772 0.187265 3.569292 0.508583 1.658779-0.332575 3.373841-0.508583 5.121648-0.508583 14.820544 0 26.833135 12.343119 26.833135 27.556613C791.149233 295.361217 779.141758 307.69410300000004 764.316098 307.69410300000004zM764.316098 190.99319500000001c-1.747807 0-3.462868-0.176009-5.121648-0.496304-1.121544 0.320295-2.325975 0.496304-3.569292 0.496304L400.462183 190.99319500000001c-0.751107 0-1.466398-0.064468-2.165316-0.187265-1.037632 0.121773-2.091638 0.187265-3.146667 0.187265-14.836917 0-26.847461-12.33084-26.847461-27.555589 0-15.21247 12.016685-27.557636 26.847461-27.557636 1.060145 0 2.109034 0.077771 3.146667 0.199545 0.699941-0.121773 1.414209-0.199545 2.165316-0.199545l355.162976 0c1.243317 0 2.448772 0.189312 3.569292 0.50756 1.658779-0.330528 3.373841-0.50756 5.121648-0.50756 14.820544 0 26.833135 12.344143 26.833135 27.557636C791.149233 178.66235500000005 779.141758 190.99319500000001 764.316098 190.99319500000001zM960.07355-7.073859999999968L960.07355 777.331273c0 0 1.477654 55.783491-63.86147 55.783491L123.439892 833.114764c-62.434981 0-63.890122-55.783491-63.890122-55.783491l0-784.475741c0 0.069585-0.198521-55.789631 63.890122-55.789631l182.209902 0c0.594541 0 1.186012-0.039909 1.77032-0.039909 0.655939 0 1.299599 0.039909 1.959631 0.039909l586.826196 0C962.832384-62.93307500000003 960.07355-7.073859999999968 960.07355-7.073859999999968zM255.318478-9.713989999999967l-110.74629-0.070608c-27.975145 0-31.234375 25.695219-31.234375 25.695219L113.337813 757.387036c0 24.62791 31.345915 21.506826 31.345915 21.506826L255.318478 778.893862 255.318478-9.713989999999967 255.318478-9.713989999999967zM877.218494-8.754129000000034L310.036707-8.754129000000034 310.036707 778.895909l281.991466 0 0-239.216243 84.669378 77.340459 85.36625-77.340459L762.063801 778.895909l113.172549 0c31.716352 0 30.115901-21.612227 30.115901-21.612227l0-744.434793C905.351228 12.848887999999988 906.901537-8.754129000000034 877.218494-8.754129000000034z"  horiz-adv-x="1024" />

    
    <glyph glyph-name="expand" unicode="&#58977;" d="M512 160.23932200000002C490.664871 159.558129 469.069808 166.17219599999999 452.782394 180.08152199999995L87.673731 491.881518C56.619735 518.401392 56.619735 561.398603 87.673731 587.918478 118.727726 614.438352 169.076202 614.438352 200.130197 587.918478L512 321.584061 823.869803 587.918478C854.923798 614.438352 905.272274 614.438352 936.32627 587.918478 967.380265 561.398603 967.380265 518.401392 936.32627 491.881518L571.217606 180.08152199999995C554.930192 166.17219599999999 533.335129 159.558129 512 160.23932200000002Z"  horiz-adv-x="1024" />

    
    <glyph glyph-name="switch" unicode="&#58954;" d="M99.119848 467.997912h828.014506a43.350032 43.350032 0 0 1 43.350032 43.350031 43.248882 43.248882 0 0 1-16.451337 33.957525 43.465632 43.465632 0 0 1-9.219107 8.756707L635.50424 771.130234a43.350032 43.350032 0 1 1-49.809186-70.964002l207.270952-145.461032H99.119848a43.350032 43.350032 0 0 1 0-86.707288zM927.134354 294.92291H99.119848a43.350032 43.350032 0 0 1-43.350032-43.350032 43.205532 43.205532 0 0 1 16.451337-33.9503c2.564877-3.272927 5.635504-6.242405 9.219107-8.756706l309.309701-217.075284a43.313907 43.313907 0 0 1 60.386594 10.584632 43.350032 43.350032 0 0 1-10.577407 60.386595L233.288196 208.222846h693.846158a43.350032 43.350032 0 0 1 0 86.700064z"  horiz-adv-x="1024" />

    
    <glyph glyph-name="mute" unicode="&#58936;" d="M816 80m-32 0a32 32 0 1 1 64 0 32 32 0 1 1-64 0ZM512-72a456 456 0 1 0 395.76 229.36 32 32 0 0 0-55.52 32 392 392 0 1 1-145.44-145.44 32 32 0 0 0 32-55.52A456 456 0 0 0 512-72zM632.48 113.36a48.8 48.8 0 0 0-28.8 9.44L452.08 233.04H343.52a49.04 49.04 0 0 0-48.96 48.96v204a49.04 49.04 0 0 0 49.04 48.96h108.48l151.6 110.24a48.96 48.96 0 0 0 77.84-40V162.4a49.12 49.12 0 0 0-49.04-49.04z m8.88 61.2zM358.56 297.04h98.4a48.72 48.72 0 0 0 28.8-9.04l131.68-96V576L485.76 480a48.8 48.8 0 0 0-28.8-9.36h-98.4v-173.6z m98.48-64zM224 64a32 32 0 0 0-22.64 54.64l584 584a32 32 0 0 0 45.28-45.28l-584-584A32 32 0 0 0 224 64z"  horiz-adv-x="1024" />

    
    <glyph glyph-name="setting" unicode="&#58943;" d="M378.56-50.08a40 40 0 0 0-12.72 2.08 453.04 453.04 0 0 0-154.88 89.44 40 40 0 0 0-10.48 45.44 128 128 0 0 1-101.52 176 40 40 0 0 0-34.16 32 456.4 456.4 0 0 0 0 178.8 40 40 0 0 0 34.16 32 128 128 0 0 1 101.52 176 40 40 0 0 0 10.4 45.44A453.04 453.04 0 0 0 365.84 816a40 40 0 0 0 44.64-13.68 128 128 0 0 1 203.04 0A40 40 0 0 0 658.16 816a453.04 453.04 0 0 0 154.88-89.44 40 40 0 0 0 10.48-45.44 128 128 0 0 1 101.52-176 40 40 0 0 0 34.16-32 456.4 456.4 0 0 0 0-178.8 40 40 0 0 0-34.16-32 128 128 0 0 1-101.52-176 40 40 0 0 0-10.4-45.44A453.04 453.04 0 0 0 658.16-48a40 40 0 0 0-44.64 13.68 128 128 0 0 1-203.04 0 40 40 0 0 0-31.92-15.76z m-112.88 129.12a388.72 388.72 0 0 1 105.36-60.88 192 192 0 0 0 281.92 0 388.64 388.64 0 0 1 105.36 60.88 192 192 0 0 0 140.96 244.16 392 392 0 0 1 0 121.68 192 192 0 0 0-140.96 244.08 388.72 388.72 0 0 1-105.36 60.88 192 192 0 0 0-281.92 0 388.64 388.64 0 0 1-105.36-60.88A192 192 0 0 0 124.72 444.8a392 392 0 0 1 0-121.68 192 192 0 0 0 140.96-244.08zM512 192a192 192 0 0 0 0 384 32 32 0 0 0 0-64 128 128 0 1 1 122.16-89.6 32 32 0 0 0 61.04 19.2A192 192 0 0 0 512 192zM608.010343 511.991029m-22.627417-22.627417a32 32 0 1 1 45.254834 45.254834 32 32 0 1 1-45.254834-45.254834Z"  horiz-adv-x="1024" />

    
    <glyph glyph-name="volume" unicode="&#58948;" d="M816 80m-32 0a32 32 0 1 1 64 0 32 32 0 1 1-64 0ZM512-72a456 456 0 1 0 395.76 229.36 32 32 0 0 0-55.52 32 392 392 0 1 1-145.44-145.44 32 32 0 0 0 32-55.52A456 456 0 0 0 512-72zM632.48 113.36a48.8 48.8 0 0 0-28.8 9.44L452.08 233.04H343.52a49.04 49.04 0 0 0-48.96 48.96v204a49.04 49.04 0 0 0 49.04 48.96h108.48l151.6 110.24a48.96 48.96 0 0 0 77.84-40V162.4a49.12 49.12 0 0 0-49.04-49.04z m8.88 61.2zM358.56 297.04h98.4a48.72 48.72 0 0 0 28.8-9.04l131.68-96V576L485.76 480a48.8 48.8 0 0 0-28.8-9.36h-98.4v-173.6z m98.48-64z"  horiz-adv-x="1024" />

    
    <glyph glyph-name="revert" unicode="&#58999;" d="M320 704v-192H192v-448h512v192h128V704H320z m321.92-577.92H254.08V384h387.84v-257.92z m128 192H704V512H382.08V576h387.84v-257.92z"  horiz-adv-x="1024" />

    
    <glyph glyph-name="excel" unicode="&#59018;" d="M911.981714 678.838857c21.138286-21.138286 38.838857-63.414857 38.838857-93.696v-658.285714a54.857143 54.857143 0 0 0-54.857142-54.857143h-768a54.857143 54.857143 0 0 0-54.857143 54.857143v914.285714a54.857143 54.857143 0 0 0 54.857143 54.857143h512c30.281143 0 72.557714-17.700571 93.696-38.838857zM658.285714 818.285714V603.4285709999999h214.857143c-3.437714 9.728-8.557714 19.419429-12.580571 23.442286L681.691429 805.741714c-3.986286 3.986286-13.714286 9.142857-23.442286 12.580572zM877.714286-54.85714299999995V530.285714h-237.714286A54.857143 54.857143 0 0 0 585.142857 585.142857V822.857143H146.285714v-877.714286h731.428572zM318.281143 78.84799999999996V18.285713999999984h160.585143v60.562286H436.004571l58.843429 92.013714c6.838857 10.861714 10.276571 19.419429 11.995429 19.419429h1.133714c0.585143-2.304 1.718857-3.986286 2.852571-5.705143 2.304-4.571429 5.705143-8.009143 9.728-13.714286l61.147429-92.013714h-43.446857V18.285713999999984h166.290285v60.562286h-38.838857l-109.714285 156.013714 111.433142 161.133715h38.290286V457.142857h-159.414857v-61.147428h42.276571l-58.843428-90.843429c-6.838857-10.861714-11.995429-19.419429-11.995429-18.870857h-1.133714c-0.585143 2.304-1.718857 3.986286-2.852571 5.705143a76.982857 76.982857 0 0 1-9.728 13.129143l-60.562286 90.843428h43.446857v61.147429H321.206857v-61.147429h38.838857l107.995429-155.428571-110.848-161.718857H318.354286z"  horiz-adv-x="1024" />

    
    <glyph glyph-name="image" unicode="&#59019;" d="M911.981714 678.838857c21.138286-21.138286 38.838857-63.414857 38.838857-93.696v-658.285714a54.857143 54.857143 0 0 0-54.857142-54.857143h-768a54.857143 54.857143 0 0 0-54.857143 54.857143v914.285714a54.857143 54.857143 0 0 0 54.857143 54.857143h512c30.281143 0 72.557714-17.700571 93.696-38.838857zM658.285714 818.285714V603.4285709999999h214.857143c-3.437714 9.728-8.557714 19.419429-12.580571 23.442286L681.691429 805.741714c-3.986286 3.986286-13.714286 9.142857-23.442286 12.580572zM877.714286-54.85714299999995V530.285714h-237.714286A54.857143 54.857143 0 0 0 585.142857 585.142857V822.857143H146.285714v-877.714286h731.428572z m-73.142857 256v-182.857143H219.428571v109.714286l109.714286 109.714286 73.142857-73.142857 219.428572 219.428571zM329.142857 310.85714299999995a109.750857 109.750857 0 0 0 0 219.428571 109.750857 109.750857 0 0 0 0-219.428571z"  horiz-adv-x="1024" />

    
    <glyph glyph-name="video" unicode="&#59020;" d="M911.981714 678.838857c21.138286-21.138286 38.838857-63.414857 38.838857-93.696v-658.285714a54.857143 54.857143 0 0 0-54.857142-54.857143h-768a54.857143 54.857143 0 0 0-54.857143 54.857143v914.285714a54.857143 54.857143 0 0 0 54.857143 54.857143h512c30.281143 0 72.557714-17.700571 93.696-38.838857zM658.285714 818.285714V603.4285709999999h214.857143c-3.437714 9.728-8.557714 19.419429-12.580571 23.442286L681.691429 805.741714c-3.986286 3.986286-13.714286 9.142857-23.442286 12.580572zM877.714286-54.85714299999995V530.285714h-237.714286A54.857143 54.857143 0 0 0 585.142857 585.142857V822.857143H146.285714v-877.714286h731.428572zM512 457.142857c40.009143 0 73.142857-33.133714 73.142857-73.142857v-219.428571c0-40.009143-33.133714-73.142857-73.142857-73.142858H292.571429c-40.009143 0-73.142857 33.133714-73.142858 73.142858v219.428571c0 40.009143 33.133714 73.142857 73.142858 73.142857h219.428571z m281.161143-1.133714a18.761143 18.761143 0 0 0 11.446857-17.152v-329.142857a18.724571 18.724571 0 0 0-11.446857-17.152 28.16 28.16 0 0 0-6.838857-1.133715 18.944 18.944 0 0 0-13.129143 5.156572l-151.442286 151.990857v51.419429l151.442286 151.990857a19.017143 19.017143 0 0 0 13.129143 5.156571c2.304 0 4.571429-0.585143 6.838857-1.133714z"  horiz-adv-x="1024" />

    
    <glyph glyph-name="txt" unicode="&#59021;" d="M911.981714 678.838857c21.138286-21.138286 38.838857-63.414857 38.838857-93.696v-658.285714a54.857143 54.857143 0 0 0-54.857142-54.857143h-768a54.857143 54.857143 0 0 0-54.857143 54.857143v914.285714a54.857143 54.857143 0 0 0 54.857143 54.857143h512c30.281143 0 72.557714-17.700571 93.696-38.838857zM658.285714 818.285714V603.4285709999999h214.857143c-3.437714 9.728-8.557714 19.419429-12.580571 23.442286L681.691429 805.741714c-3.986286 3.986286-13.714286 9.142857-23.442286 12.580572zM877.714286-54.85714299999995V530.285714h-237.714286A54.857143 54.857143 0 0 0 585.142857 585.142857V822.857143H146.285714v-877.714286h731.428572zM292.571429 438.857143c0 10.276571 8.009143 18.285714 18.285714 18.285714h402.285714c10.276571 0 18.285714-8.009143 18.285714-18.285714v-36.571429c0-10.276571-8.009143-18.285714-18.285714-18.285714h-402.285714a18.066286 18.066286 0 0 0-18.285714 18.285714v36.571429zM713.142857 310.85714299999995c10.276571 0 18.285714-8.009143 18.285714-18.285714v-36.571429c0-10.276571-8.009143-18.285714-18.285714-18.285714h-402.285714a18.066286 18.066286 0 0 0-18.285714 18.285714v36.571429c0 10.276571 8.009143 18.285714 18.285714 18.285714h402.285714z m0-146.285714c10.276571 0 18.285714-8.009143 18.285714-18.285715v-36.571428c0-10.276571-8.009143-18.285714-18.285714-18.285715h-402.285714a18.066286 18.066286 0 0 0-18.285714 18.285715v36.571428c0 10.276571 8.009143 18.285714 18.285714 18.285715h402.285714z"  horiz-adv-x="1024" />

    
    <glyph glyph-name="ppt" unicode="&#59022;" d="M911.981714 678.838857c21.138286-21.138286 38.838857-63.414857 38.838857-93.696v-658.285714a54.857143 54.857143 0 0 0-54.857142-54.857143h-768a54.857143 54.857143 0 0 0-54.857143 54.857143v914.285714a54.857143 54.857143 0 0 0 54.857143 54.857143h512c30.281143 0 72.557714-17.700571 93.696-38.838857zM658.285714 818.285714V603.4285709999999h214.857143c-3.437714 9.728-8.557714 19.419429-12.580571 23.442286L681.691429 805.741714c-3.986286 3.986286-13.714286 9.142857-23.442286 12.580572zM877.714286-54.85714299999995V530.285714h-237.714286A54.857143 54.857143 0 0 0 585.142857 585.142857V822.857143H146.285714v-877.714286h731.428572zM310.857143 78.84799999999996V18.285713999999984h186.843428v60.562286h-53.138285v95.414857h78.299428c24.576 0 46.848 1.133714 67.437715 8.557714 51.419429 17.700571 83.419429 70.838857 83.419428 133.156572s-30.866286 110.299429-78.299428 130.304c-21.723429 8.557714-48.018286 10.861714-74.276572 10.861714H310.857143v-61.147428h52.553143v-317.147429H310.857143z m201.728 160h-67.986286v153.161143h68.571429c20.004571 0 35.437714-3.437714 47.433143-10.276572 20.553143-11.995429 32-35.437714 32-65.718857 0-32-11.446857-56.576-35.437715-68.571428-11.995429-5.705143-26.843429-8.557714-44.580571-8.557715z"  horiz-adv-x="1024" />

    
    <glyph glyph-name="pdf" unicode="&#59023;" d="M911.981714 678.838857c21.138286-21.138286 38.838857-63.414857 38.838857-93.696v-658.285714a54.857143 54.857143 0 0 0-54.857142-54.857143h-768a54.857143 54.857143 0 0 0-54.857143 54.857143v914.285714a54.857143 54.857143 0 0 0 54.857143 54.857143h512c30.281143 0 72.557714-17.700571 93.696-38.838857zM658.285714 818.285714V603.4285709999999h214.857143c-3.437714 9.728-8.557714 19.419429-12.580571 23.442286L681.691429 805.741714c-3.986286 3.986286-13.714286 9.142857-23.442286 12.580572zM877.714286-54.85714299999995V530.285714h-237.714286A54.857143 54.857143 0 0 0 585.142857 585.142857V822.857143H146.285714v-877.714286h731.428572z m-293.705143 338.870857c14.299429-11.446857 30.281143-21.723429 47.981714-32a565.248 565.248 0 0 0 66.852572 3.986286c38.290286 0 86.857143-4.571429 101.156571-28.013714 3.986286-5.705143 7.424-16.018286 1.133714-29.696-0.585143-0.585143-1.133714-1.718857-1.718857-2.304v-0.585143c-1.718857-10.276571-10.276571-21.723429-40.557714-21.723429-36.571429 0-92.013714 16.566857-139.995429 41.728-79.433143-8.557714-162.852571-26.294857-224-47.433143-58.843429-100.571429-104.009143-149.723429-138.276571-149.723428a31.853714 31.853714 0 0 0-16.018286 3.986286l-13.714286 6.838857c-1.718857 0.585143-2.304 1.718857-3.437714 2.852571-2.852571 2.852571-5.156571 9.142857-3.437714 20.553143 5.705143 26.294857 36.571429 70.290286 107.446857 107.446857 4.571429 2.852571 10.276571 1.133714 13.129143-3.437714a4.278857 4.278857 0 0 0 1.133714-2.304 1488.310857 1488.310857 0 0 1 61.147429 112.566857c25.709714 51.419429 45.714286 101.705143 59.428571 149.723429-18.285714 62.281143-23.990857 126.281143-13.714286 163.986285 3.986286 14.299429 12.580571 22.857143 23.990858 22.857143h12.580571c8.557714 0 15.433143-2.852571 20.004571-8.557714 6.838857-8.009143 8.557714-20.553143 5.156572-38.838857-0.585143-1.718857-1.133714-3.437714-2.304-4.571429a12.288 12.288 0 0 0 0.585143-4.571428v-17.152c-0.585143-35.986286-1.133714-70.290286-8.009143-109.714286 20.004571-60.013714 49.700571-108.580571 83.419428-136.009143z m-329.142857-234.861714c17.152 8.009143 41.728 32.585143 78.299428 90.294857-42.861714-33.133714-69.705143-70.838857-78.299428-90.294857z m227.437714 525.714286c-5.705143-16.018286-5.705143-43.446857-1.133714-75.446857 1.718857 9.142857 2.852571 17.700571 3.986285 25.161142 1.133714 9.728 2.852571 17.700571 3.986286 24.576a16.822857 16.822857 0 0 0 2.304 4.571429c-0.585143 0.585143-0.585143 1.718857-1.133714 2.852571-0.585143 10.276571-3.986286 16.566857-7.424 20.553143 0-1.133714-0.585143-1.718857-0.585143-2.304zM411.428571 197.15657099999999a873.472 873.472 0 0 0 162.304 46.299429c-5.705143 4.571429-11.446857 8.557714-16.566857 13.129143-28.013714 24.576-53.138286 58.843429-72.557714 100.571428-10.861714-34.852571-26.843429-72.009143-47.433143-112.566857-8.557714-16.018286-17.152-32-25.709714-47.433143z m369.152 9.142858c-2.852571 2.852571-17.700571 13.714286-80.018285 13.714285 28.013714-10.276571 53.723429-16.018286 70.838857-16.018285 5.156571 0 8.009143 0 10.276571 0.585142 0 0.585143-0.585143 1.133714-1.133714 1.718858z"  horiz-adv-x="1024" />

    
    <glyph glyph-name="word" unicode="&#59024;" d="M911.981714 678.838857c21.138286-21.138286 38.838857-63.414857 38.838857-93.696v-658.285714a54.857143 54.857143 0 0 0-54.857142-54.857143h-768a54.857143 54.857143 0 0 0-54.857143 54.857143v914.285714a54.857143 54.857143 0 0 0 54.857143 54.857143h512c30.281143 0 72.557714-17.700571 93.696-38.838857zM658.285714 818.285714V603.4285709999999h214.857143c-3.437714 9.728-8.557714 19.419429-12.580571 23.442286L681.691429 805.741714c-3.986286 3.986286-13.714286 9.142857-23.442286 12.580572zM877.714286-54.85714299999995V530.285714h-237.714286A54.857143 54.857143 0 0 0 585.142857 585.142857V822.857143H146.285714v-877.714286h731.428572zM206.299429 457.142857v-61.147428h40.009142L340.004571 18.285713999999984h90.843429l73.142857 277.138286c2.852571 8.557714 4.571429 17.152 5.705143 26.294857 0.585143 4.571429 1.133714 9.142857 1.133714 13.714286h2.304l1.718857-13.714286c1.718857-8.009143 2.304-17.152 5.156572-26.294857l73.142857-277.138286h90.843429l93.696 377.709715h40.009142V457.142857h-171.446857v-61.147428h51.419429l-56.576-250.294858c-2.304-9.142857-3.437714-18.870857-3.986286-26.294857l-1.133714-11.995428h-2.304c0 3.437714-1.133714 8.009143-1.718857 11.995428-1.718857 7.424-2.852571 17.152-5.156572 26.294857L544.512 457.142857h-65.133714l-82.285715-311.442286c-2.304-9.142857-2.852571-18.870857-4.571428-26.294857l-2.304-11.995428h-2.304l-1.133714 11.995428a167.497143 167.497143 0 0 1-3.986286 26.294857L326.217143 395.995429h51.419428V457.142857H206.189714z"  horiz-adv-x="1024" />

    
    <glyph glyph-name="student" unicode="&#59328;" d="M928 332.79999999999995a32 32 0 0 0-32 32V524.8a32 32 0 0 0 64 0v-160a32 32 0 0 0-32-32zM515.584 371.20000000000005c-20.8 0-38.848 2.816-56.896 8.96L49.28 536.1279999999999C6.336 553.664 0 580.672 0 595.2c0 14.592 6.336 41.6 48.576 58.816l405.376 155.776c31.232 12.096 84.736 12.16 116.16 0l404.672-155.52c42.88-17.408 49.216-44.48 49.216-59.072 0-14.592-6.336-41.536-48.64-58.816L570.048 380.60799999999995c-13.312-6.08-31.68-9.408-54.464-9.408zM73.92 595.2l406.464-154.752c10.432-3.584 21.248-5.248 35.2-5.248 16.512 0 25.344 2.432 29.76 4.416L950.016 595.2 547.072 750.016c-16.768 6.528-53.504 6.464-70.08 0L73.92 595.2zM515.584 251.84000000000003c-20.736 0-38.784 2.88-56.896 9.024L180.16 366.84799999999996l22.72 59.84 277.44-105.664c10.496-3.52 21.312-5.248 35.2-5.248 16.448 0 25.28 2.432 29.76 4.48l275.136 105.792 22.976-59.776-273.344-105.024c-13.376-6.144-31.744-9.408-54.464-9.408zM515.456-51.200000000000045c-164.8 0-346.304 50.368-355.328 161.024L160 396.8a32 32 0 0 0 64 0v-281.024c4.416-56.128 137.92-102.976 291.456-102.976 120.768 0 232.32 28.352 271.296 68.928 9.344 9.664 13.632 19.328 13.184 29.376V394.496a32 32 0 0 0 64 0v-278.72c1.152-29.632-9.6-56-30.976-78.336-62.784-65.344-205.12-88.64-317.504-88.64zM928 268.79999999999995m-32 0a32 32 0 1 1 64 0 32 32 0 1 1-64 0Z"  horiz-adv-x="1024" />

    
    <glyph glyph-name="resource" unicode="&#59050;" d="M938.67008 896H85.32992A85.42208 85.42208 0 0 1 0 810.67008v-853.34016A85.42208 85.42208 0 0 1 85.32992-128h853.34016a85.42208 85.42208 0 0 1 85.32992 85.32992V810.67008A85.42208 85.42208 0 0 1 938.67008 896zM85.32992 839.10656h853.34016a28.4672 28.4672 0 0 0 28.44672-28.44672v-199.10656H56.89344V810.67008a28.47744 28.47744 0 0 0 28.43648 28.43648z m853.34016-910.21312H85.32992a28.47744 28.47744 0 0 0-28.44672 28.44672V554.67008h910.22336v-597.34016a28.4672 28.4672 0 0 0-28.43648-28.43648zM210.8928 240.30208000000005l146.91328 150.31296a28.45696 28.45696 0 0 1-40.69376 39.7824L150.3232 259.71712a28.43648 28.43648 0 0 1 0.47104-40.22272l170.65984-166.76864a28.43648 28.43648 0 1 1 39.75168 40.66304zM706.88768 430.3872a28.45696 28.45696 0 0 1-40.69376-39.7824l146.91328-150.30272L662.79424 93.38879999999995a28.43648 28.43648 0 1 1 39.75168-40.66304l170.68032 166.77888a28.43648 28.43648 0 0 1 0.44032 40.22272zM575.25248 415.49824a28.45696 28.45696 0 0 1-36.4544-16.9984L431.75936 104.49919999999997a28.43648 28.43648 0 1 1 53.44256-19.456l107.03872 294.01088a28.42624 28.42624 0 0 1-16.98816 36.44416z"  horiz-adv-x="1024" />

    
    <glyph glyph-name="class" unicode="&#59036;" d="M597.12 367.808c-106.176 0-192.512 86.336-192.512 192.512s86.4 192.512 192.512 192.512 192.512-86.336 192.512-192.512-86.4-192.512-192.512-192.512z m0 337.024C517.44 704.832 452.608 640 452.608 560.3199999999999S517.44 415.808 597.12 415.808s144.512 64.832 144.512 144.512-64.832 144.512-144.512 144.512zM264 15.360000000000014a24 24 0 0 0-24 24 375.808 375.808 0 0 0 375.424 375.296 24 24 0 0 0 0-48A327.68 327.68 0 0 1 288 39.360000000000014a23.936 23.936 0 0 0-24-24zM345.344 391.168c-89.472 0-151.936 69.504-151.936 169.152a169.344 169.344 0 0 0 169.152 169.152 24 24 0 0 0 0-48.064 121.28 121.28 0 0 1-121.152-121.152c0-60.288 32.128-121.152 103.936-121.152a24 24 0 0 0 0-47.936zM85.376 129.024a24 24 0 0 0-24 24c0 165.824 123.968 286.208 294.72 286.208a24 24 0 0 0 0-48.064c-145.28 0-246.72-97.92-246.72-238.208a24 24 0 0 0-24-23.936zM938.688 15.231999999999971a24.064 24.064 0 0 0-23.936 22.208 325.568 325.568 0 0 1-206.144 280.064 23.936 23.936 0 1 0 17.6 44.544 373.056 373.056 0 0 0 236.352-321.024 24 24 0 0 0-22.144-25.728l-1.728-0.064z"  horiz-adv-x="1024" />

    
    <glyph glyph-name="play" unicode="&#58880;" d="M772.7 678.3a32.2 32.099999999999994 0 1 1 64.4 0 32.2 32.099999999999994 0 1 1-64.4 0ZM415.8 216.10000000000002c5.9 0 11.5 1.6 16.2 4.5l231.1 134.6c10.9 5.2 18.5 16.3 18.5 29.2 0 11.9-6.4 22.3-16 27.8L439.7 543.8c-5.8 6.7-14.4 10.9-23.9 10.9-17.6 0-31.8-14.4-31.8-32.1 0-0.6 0-1.2 0.1-1.8l-0.4-0.2 0.5-269c-0.1-1.1-0.2-2.2-0.2-3.4 0-17.7 14.3-32.1 31.8-32.1zM909.8 589.4c-5.4 10.5-16.3 17.8-28.9 17.8-17.8 0-32.2-14.4-32.2-32.1 0-6 1.7-11.7 4.6-16.5l-0.1-0.1c26.9-52.4 42.1-111.8 42.1-174.7 0-211.6-171.6-383.2-383.2-383.2S128.8 172.20000000000005 128.8 383.79999999999995 300.4 766.9 512 766.9c62.5 0 121.5-15 173.6-41.5l0.2 0.4c4.6-2.6 10-4.1 15.7-4.1 17.8 0 32.2 14.4 32.2 32.1 0 13.1-7.9 24.4-19.3 29.4C653.6 814.1 584.9 831.5 512 831.5 264.7 831.5 64.3 631 64.3 383.79999999999995S264.7-63.89999999999998 512-63.89999999999998s447.7 200.4 447.7 447.7c0 74.1-18 144-49.9 205.6z"  horiz-adv-x="1024" />

    
    <glyph glyph-name="favourite" unicode="&#58881;" d="M506 1.7999999999999545a33 32.9 0 1 1 66 0 33 32.9 0 1 1-66 0ZM864 507.3v4.4c0 70.7-57.3 128-128 128H511.8l-82.5 110.9c-7.4 12.9-18 16.2-27.3 16l-0.1 0.1H192.1c-70.7 0-128-57.3-128-128v-542.1c0-70.7 57.3-128 128-128H407v0.4c18.2 0 33 14.7 33 32.9s-14.8 32.9-33 32.9c-1 0-2.1-0.1-3.1-0.1h-181c-35.3 0-64 28.7-64 64 0 5.5 0.7 10.9 2 16L234 397.1l0.2 0.1c6.7 28.1 31.9 49 62.1 49.1l0.2 0.1h532.2c1.3 0.1 2.5 0.1 3.8 0.1 35.3 0 64-28.7 64-64 0-6.7-1.1-13.3-3-19.4v-0.1L821 83.20000000000005c-0.1-0.6-0.3-1.1-0.4-1.7l-1.5-5.8-0.5-0.4c-1.5-3.9-3.4-7.5-5.5-11h-1.3c-2.6-4.7-5.8-9.1-9.5-12.9-11.4-10.6-26.7-17.1-43.4-17.1-1.3 0-2.6 0-3.8 0.1h-80.8c-1 0.1-2.1 0.1-3.1 0.1-18.2 0-33-14.7-33-32.9s14.8-32.9 33-32.9v-0.2H763l0.5 0.4c59.1 0.2 108.7 40.4 123.2 95l0.2 0.2 67.8 285.5c2.9 10.8 4.5 22.1 4.5 33.8-0.1 59.5-40.5 109.5-95.2 123.9z m-571.5 4.9c-62 0-113.7-44.2-125.5-102.7l-0.5-0.4-38-160.3V639c0 35.3 28.7 64 64 64H383l82.7-111.3c6.6-11.4 19.2-17.2 31.5-15.8h238.5c35.2 0 63.8-28.5 64-63.7H292.5z"  horiz-adv-x="1024" />

    
    <glyph glyph-name="pause" unicode="&#58882;" d="M910.8 592.4c-5.4 10.5-16.3 17.8-28.9 17.8-17.8 0-32.2-14.4-32.2-32.1 0-6 1.7-11.7 4.6-16.5l-0.1-0.1c26.9-52.4 42.1-111.8 42.1-174.7 0-211.6-171.6-383.2-383.2-383.2S129.8 175.20000000000005 129.8 386.8 301.4 769.9 513 769.9c62.5 0 121.5-15 173.6-41.5l0.2 0.4c4.6-2.6 10-4.1 15.7-4.1 17.8 0 32.2 14.4 32.2 32.1 0 13.1-7.9 24.4-19.3 29.4C654.6 817.1 585.9 834.5 513 834.5 265.7 834.5 65.3 634 65.3 386.8S265.7-60.89999999999998 513-60.89999999999998s447.7 200.4 447.7 447.7c0 74.1-18 144-49.9 205.6zM385.4 543.8V224c0-17.5 14.3-31.9 31.9-31.9 17.6 0 32 14.4 31.9 31.9V543.8c0 17.5-14.3 31.9-31.9 31.9-17.5 0-31.9-14.3-31.9-31.9zM578.9 543.8V224c0-17.5 14.3-31.9 31.9-31.9 17.5 0 31.9 14.4 31.9 31.9V543.8c0 17.5-14.3 31.9-31.9 31.9-17.5 0-31.9-14.3-31.9-31.9zM772.7 678.3a32.2 32.099999999999994 0 1 1 64.4 0 32.2 32.099999999999994 0 1 1-64.4 0Z"  horiz-adv-x="1024" />

    


  </font>
</defs>
</svg>
